<?xml version="1.0" encoding="utf-8"?>
<!-- Generator: Adobe Illustrator 27.5.0, SVG Export Plug-In . SVG Version: 6.00 Build 0)  -->
<svg version="1.1" xmlns="http://www.w3.org/2000/svg" xmlns:xlink="http://www.w3.org/1999/xlink" x="0px" y="0px"
	 viewBox="0 0 500 500" style="enable-background:new 0 0 500 500;" xml:space="preserve">
<g id="Background_Complete">
	<g>
		<g>
			<rect x="60.564" y="104.037" style="fill:#FFFFFF;stroke:#E0E0E0;stroke-miterlimit:10;" width="302.106" height="184.695"/>
			<line style="fill:none;stroke:#E0E0E0;stroke-miterlimit:10;" x1="60.564" y1="127.969" x2="362.67" y2="127.969"/>
			<g>
				<path style="fill:#E0E0E0;" d="M81.911,116.764c0,3.161-2.563,5.724-5.724,5.724c-3.161,0-5.724-2.563-5.724-5.724
					c0-3.161,2.563-5.724,5.724-5.724C79.349,111.04,81.911,113.603,81.911,116.764z"/>
				<path style="fill:#F0F0F0;" d="M105.283,116.764c0,3.161-2.562,5.724-5.724,5.724c-3.161,0-5.723-2.563-5.723-5.724
					c0-3.161,2.563-5.724,5.723-5.724C102.72,111.04,105.283,113.603,105.283,116.764z"/>
				<path style="fill:#F5F5F5;" d="M128.654,116.764c0,3.161-2.563,5.724-5.724,5.724c-3.161,0-5.724-2.563-5.724-5.724
					c0-3.161,2.563-5.724,5.724-5.724C126.091,111.04,128.654,113.603,128.654,116.764z"/>
			</g>
		</g>
		<g>
			<g>
				<rect x="77.96" y="174.208" style="fill:#E6E6E6;" width="16.101" height="4.441"/>
				<rect x="105.796" y="174.208" style="fill:#E6E6E6;" width="109.336" height="4.441"/>
				<rect x="225.026" y="174.208" style="fill:#E6E6E6;" width="30.584" height="4.441"/>
				<rect x="294.979" y="233.638" style="fill:#E6E6E6;" width="30.584" height="4.441"/>
				<rect x="262.259" y="174.208" style="fill:#E6E6E6;" width="52.87" height="4.441"/>
				<rect x="94.062" y="186.094" style="fill:#E6E6E6;" width="16.101" height="4.441"/>
				<rect x="121.494" y="186.094" style="fill:#E6E6E6;" width="70.969" height="4.441"/>
				<rect x="216.746" y="233.638" style="fill:#E6E6E6;" width="70.969" height="4.441"/>
				<rect x="105.796" y="221.752" style="fill:#E6E6E6;" width="65.533" height="4.441"/>
				<rect x="121.494" y="197.98" style="fill:#E6E6E6;" width="30.979" height="4.441"/>
				<rect x="245.478" y="209.866" style="fill:#E6E6E6;" width="30.979" height="4.441"/>
				<rect x="161.484" y="197.98" style="fill:#E6E6E6;" width="104.581" height="4.441"/>
				<rect x="105.796" y="233.638" style="fill:#E6E6E6;" width="104.581" height="4.441"/>
				<rect x="258.849" y="186.094" style="fill:#E6E6E6;" width="83.903" height="4.441"/>
				<rect x="200.073" y="186.094" style="fill:#E6E6E6;" width="52.127" height="4.441"/>
				<rect x="272.161" y="197.98" style="fill:#E6E6E6;" width="52.127" height="4.441"/>
				<rect x="94.062" y="197.98" style="fill:#E6E6E6;" width="16.101" height="4.441"/>
				<rect x="77.96" y="209.866" style="fill:#E6E6E6;" width="16.101" height="4.441"/>
				<rect x="105.796" y="209.866" style="fill:#E6E6E6;" width="44.919" height="4.441"/>
				<rect x="121.494" y="245.524" style="fill:#E6E6E6;" width="44.919" height="4.441"/>
				<rect x="223.571" y="257.409" style="fill:#E6E6E6;" width="72.345" height="4.441"/>
				<rect x="174.137" y="245.524" style="fill:#E6E6E6;" width="70.307" height="4.441"/>
				<rect x="157.306" y="257.409" style="fill:#E6E6E6;" width="57.945" height="4.441"/>
				<rect x="252.701" y="245.524" style="fill:#E6E6E6;" width="90.051" height="4.441"/>
				<rect x="121.494" y="257.409" style="fill:#E6E6E6;" width="27.553" height="4.441"/>
				<rect x="177.881" y="221.752" style="fill:#E6E6E6;" width="77.729" height="4.441"/>
				<rect x="262.259" y="221.752" style="fill:#E6E6E6;" width="65.44" height="4.441"/>
				<rect x="160.389" y="209.866" style="fill:#E6E6E6;" width="77.605" height="4.441"/>
				<rect x="77.96" y="221.752" style="fill:#E6E6E6;" width="16.101" height="4.441"/>
				<rect x="77.96" y="233.638" style="fill:#E6E6E6;" width="16.101" height="4.441"/>
				<rect x="94.062" y="245.524" style="fill:#E6E6E6;" width="16.101" height="4.441"/>
				<rect x="94.062" y="257.409" style="fill:#E6E6E6;" width="16.101" height="4.441"/>
			</g>
			
				<text transform="matrix(1 0 0 1 77.2321 165.1458)" style="fill:#E0E0E0; font-family:'CourierPrimeCode-Regular'; font-size:22.1088px;">&lt;/&gt;</text>
		</g>
	</g>
	<g>
		<path style="fill:#FFFFFF;stroke:#EAEAEA;stroke-miterlimit:10;" d="M39.922,269.821h35.274c4.507,0,8.16,3.653,8.16,8.16v14.401
			v5.036v15.777l-8.296-7.617H39.922c-4.507,0-8.16-3.653-8.16-8.16v-19.437C31.762,273.474,35.416,269.821,39.922,269.821z"/>
		<g>
			<path style="fill:#EAEAEA;" d="M65.631,288.348c0,1.959,1.588,3.548,3.548,3.548c1.959,0,3.548-1.588,3.548-3.548
				c0-1.959-1.589-3.548-3.548-3.548C67.219,284.8,65.631,286.388,65.631,288.348z"/>
			<circle style="fill:#EAEAEA;" cx="56.837" cy="288.348" r="3.548"/>
			<circle style="fill:#EAEAEA;" cx="44.495" cy="288.348" r="3.548"/>
		</g>
	</g>
	<path style="fill:#F0F0F0;" d="M408.127,76.549c0,4.153-3.213,7.555-7.293,7.856v0.022h-44.62c-5.115,0-9.26-4.145-9.26-9.26
		c0-4.822,3.685-8.788,8.394-9.22c0.267-8.381,7.144-15.097,15.59-15.097c6.724,0,12.456,4.254,14.646,10.217
		c1.246-0.63,2.649-0.979,4.14-0.979c4.923,0,8.949,3.839,9.242,8.687c0.415-0.07,0.844-0.105,1.281-0.105
		C404.599,68.671,408.127,72.199,408.127,76.549z"/>
	<g>
		<path style="fill:#F0F0F0;" d="M435.585,285.922h-38.362c-3.881,0-7.026-3.146-7.026-7.026v-22.023
			c0-3.88,3.146-7.026,7.026-7.026h38.362c3.881,0,7.026,3.146,7.026,7.026v22.023C442.611,282.776,439.466,285.922,435.585,285.922
			z"/>
		
			<text transform="matrix(1 0 0 1 398.8333 272.7572)" style="fill:#FFFFFF; font-family:'CourierPrimeCode-Regular'; font-size:19.5095px;">&lt;/&gt;</text>
	</g>
	
		<text transform="matrix(1 0 0 1 369.7218 229.3658)" style="fill:#E6E6E6; font-family:'CourierPrimeCode-Regular'; font-size:23.3332px;">{}</text>
	
		<text transform="matrix(1 0 0 1 71.5226 67.6393)" style="fill:#E6E6E6; font-family:'CourierPrimeCode-Regular'; font-size:18.3195px;">{}</text>
</g>
<g id="Background_Simple" style="display:none;">
	<ellipse style="display:inline;fill:#F0F0F0;" cx="110.757" cy="96.748" rx="53.431" ry="48.94"/>
	<path style="display:inline;fill:#F0F0F0;" d="M75.981,407.202h319.308c19.307-14.537,35.485-32.752,47.973-54.752
		c31.445-55.397,37.149-129.822,9.612-193.799c-8.527-19.81-22.855-46.714-39.258-60.904c-22.496-19.46-52.656-23.337-74.348-21.024
		c-72.632,7.743-78.028,74.831-77.912,93.124c0.116,18.293,6.27,39.333-5.888,53.147c-17.113,19.443-46.925,21.327-72.829,18.151
		c-25.904-3.175-52.633-9.859-77.593-2.32c-37.726,11.394-66.798,59.945-59.9,98.264C49.657,362.154,59.618,387.839,75.981,407.202z
		"/>
</g>
<g id="Screens">
	<g>
		<path style="fill:#4D5A64;" d="M243.07,158.605H136.214c-4.589,0-8.31-3.72-8.31-8.31V72.652c0-4.589,3.72-8.31,8.31-8.31H243.07
			c4.589,0,8.31,3.72,8.31,8.31v77.644C251.38,154.885,247.659,158.605,243.07,158.605z"/>
		
			<text transform="matrix(1 0 0 1 210.298 89.243)" style="fill:#FAFAFA; font-family:'CourierPrimeCode-Regular'; font-size:14.8515px;">&lt;/&gt;</text>
		<g>
			<g>
				<g>
					<path style="fill:#FAFAFA;" d="M165.233,86.106c9.574,0,19.147,0,28.721,0c1.383,0,2.765,0,4.148,0c0.965,0,0.967-1.5,0-1.5
						c-9.574,0-19.147,0-28.721,0c-1.383,0-2.765,0-4.148,0C164.268,84.606,164.266,86.106,165.233,86.106L165.233,86.106z"/>
				</g>
			</g>
			<g>
				<g>
					<path style="fill:#FAFAFA;" d="M139.353,98.974c3.148,0,6.296,0,9.444,0c7.563,0,15.126,0,22.688,0c9.197,0,18.395,0,27.592,0
						c7.918,0,15.836,0,23.753,0c2.621,0,5.243,0,7.864,0c1.219,0,2.492,0.106,3.707,0c0.055-0.005,0.113,0,0.168,0
						c0.965,0,0.967-1.5,0-1.5c-3.148,0-6.296,0-9.444,0c-7.563,0-15.126,0-22.689,0c-9.197,0-18.394,0-27.592,0
						c-7.918,0-15.836,0-23.754,0c-2.621,0-5.243,0-7.864,0c-1.219,0-2.492-0.106-3.707,0c-0.055,0.005-0.113,0-0.168,0
						C138.388,97.474,138.386,98.974,139.353,98.974L139.353,98.974z"/>
				</g>
			</g>
			<g>
				<g>
					<path style="fill:#FAFAFA;" d="M223.754,114.124c3.159,0,6.317,0,9.476,0c0.447,0,0.893,0,1.34,0c0.965,0,0.967-1.5,0-1.5
						c-3.159,0-6.317,0-9.476,0c-0.447,0-0.893,0-1.34,0C222.789,112.624,222.787,114.124,223.754,114.124L223.754,114.124z"/>
				</g>
			</g>
			<g>
				<g>
					<path style="fill:#FAFAFA;" d="M166.392,114.124c5.141,0,10.283,0,15.424,0c8.157,0,16.314,0,24.471,0c1.895,0,3.79,0,5.686,0
						c0.965,0,0.967-1.5,0-1.5c-5.141,0-10.283,0-15.424,0c-8.157,0-16.314,0-24.471,0c-1.895,0-3.79,0-5.686,0
						C165.427,112.624,165.425,114.124,166.392,114.124L166.392,114.124z"/>
				</g>
			</g>
			<g>
				<g>
					<path style="fill:#FAFAFA;" d="M139.353,126.667c3.148,0,6.296,0,9.444,0c7.563,0,15.126,0,22.688,0c9.197,0,18.395,0,27.592,0
						c7.918,0,15.836,0,23.753,0c2.621,0,5.243,0,7.864,0c1.219,0,2.492,0.106,3.707,0c0.055-0.005,0.113,0,0.168,0
						c0.965,0,0.967-1.5,0-1.5c-3.148,0-6.296,0-9.444,0c-7.563,0-15.126,0-22.689,0c-9.197,0-18.394,0-27.592,0
						c-7.918,0-15.836,0-23.754,0c-2.621,0-5.243,0-7.864,0c-1.219,0-2.492-0.106-3.707,0c-0.055,0.005-0.113,0-0.168,0
						C138.388,125.167,138.386,126.667,139.353,126.667L139.353,126.667z"/>
				</g>
			</g>
			<g>
				<g>
					<path style="fill:#FAFAFA;" d="M206.758,140.513c8.107,0,16.214,0,24.321,0c1.164,0,2.327,0,3.491,0c0.965,0,0.967-1.5,0-1.5
						c-8.107,0-16.214,0-24.321,0c-1.163,0-2.327,0-3.491,0C205.793,139.013,205.791,140.513,206.758,140.513L206.758,140.513z"/>
				</g>
			</g>
			<g>
				<g>
					<path style="fill:#FAFAFA;" d="M166.392,140.513c9.261,0,18.523,0,27.784,0c1.308,0,2.617,0,3.926,0c0.965,0,0.967-1.5,0-1.5
						c-9.261,0-18.523,0-27.784,0c-1.309,0-2.617,0-3.926,0C165.427,139.013,165.425,140.513,166.392,140.513L166.392,140.513z"/>
				</g>
			</g>
		</g>
	</g>
	<g>
		<g>
			<g>
				<g>
					<path style="fill:#FAFAFA;stroke:#D880A6;stroke-miterlimit:10;" d="M252.684,212.907h-72.04v40.537h72.04V212.907z"/>
				</g>
			</g>
			<g>
				<path style="fill:#D880A6;" d="M187.496,216.61c0,1.015-0.822,1.837-1.837,1.837s-1.837-0.822-1.837-1.837
					c0-1.015,0.822-1.837,1.837-1.837S187.496,215.595,187.496,216.61z"/>
				<path style="fill:#D880A6;" d="M194.998,216.61c0,1.015-0.822,1.837-1.837,1.837s-1.837-0.822-1.837-1.837
					c0-1.015,0.822-1.837,1.837-1.837S194.998,215.595,194.998,216.61z"/>
				<path style="fill:#D880A6;" d="M202.499,216.61c0,1.015-0.822,1.837-1.837,1.837s-1.837-0.822-1.837-1.837
					c0-1.015,0.822-1.837,1.837-1.837S202.499,215.595,202.499,216.61z"/>
			</g>
		</g>
		
			<text transform="matrix(1 0 0 1 190.8122 240.974)" style="fill:#D880A6; font-family:'CourierPrimeCode-Regular'; font-size:22.3134px;">HTML</text>
		<line style="fill:none;stroke:#D880A6;stroke-miterlimit:10;" x1="180.645" y1="220.206" x2="252.684" y2="220.206"/>
	</g>
	<g>
		<g>
			<g>
				<g>
					<path style="fill:#FAFAFA;stroke:#D880A6;stroke-miterlimit:10;" d="M139.549,79.414H90.134v33.334h49.416V79.414z"/>
				</g>
			</g>
			<g>
				<circle style="fill:#D880A6;" cx="94.257" cy="82.459" r="1.511"/>
				<path style="fill:#D880A6;" d="M101.936,82.459c0,0.834-0.676,1.511-1.511,1.511c-0.834,0-1.511-0.676-1.511-1.511
					c0-0.834,0.676-1.511,1.511-1.511C101.26,80.948,101.936,81.624,101.936,82.459z"/>
				<path style="fill:#D880A6;" d="M108.105,82.459c0,0.834-0.676,1.511-1.511,1.511c-0.834,0-1.511-0.676-1.511-1.511
					c0-0.834,0.676-1.511,1.511-1.511C107.428,80.948,108.105,81.624,108.105,82.459z"/>
			</g>
		</g>
		
			<text transform="matrix(1 0 0 1 98.494 104.1375)" style="fill:#D880A6; font-family:'CourierPrimeCode-Regular'; font-size:18.3482px;">PHP</text>
		<line style="fill:none;stroke:#D880A6;stroke-miterlimit:10;" x1="90.134" y1="85.416" x2="139.549" y2="85.416"/>
	</g>
	<g>
		<g>
			<g>
				<g>
					<path style="fill:#D880A6;" d="M468.087,128.426h-95.565v60.357h95.565"/>
				</g>
				<g>
					<rect x="372.521" y="128.426" style="fill:#D880A6;" width="95.565" height="11.529"/>
					<g style="opacity:0.2;">
						<rect x="372.521" y="128.426" width="95.565" height="11.529"/>
					</g>
				</g>
			</g>
			<g>
				<path style="fill:#E0E0E0;" d="M383.344,134.275c0,1.602-1.299,2.901-2.902,2.901c-1.602,0-2.902-1.299-2.902-2.901
					c0-1.603,1.299-2.902,2.902-2.902C382.045,131.373,383.344,132.672,383.344,134.275z"/>
				<path style="fill:#F0F0F0;" d="M395.192,134.275c0,1.602-1.299,2.901-2.902,2.901c-1.603,0-2.902-1.299-2.902-2.901
					c0-1.603,1.299-2.902,2.902-2.902C393.893,131.373,395.192,132.672,395.192,134.275z"/>
				<path style="fill:#FAFAFA;" d="M407.04,134.275c0,1.602-1.299,2.901-2.902,2.901s-2.902-1.299-2.902-2.901
					c0-1.603,1.299-2.902,2.902-2.902S407.04,132.672,407.04,134.275z"/>
			</g>
		</g>
		
			<text transform="matrix(1 0 0 1 388.5805 172.756)" style="fill:#FAFAFA; font-family:'CourierPrimeCode-Regular'; font-size:35.2426px;">C++</text>
	</g>
	<g>
		<g>
			<g>
				<g>
					<path style="fill:#D880A6;" d="M122.059,169.675H42.947v49.966h79.112"/>
				</g>
				<g>
					<rect x="42.947" y="169.675" style="fill:#D880A6;" width="79.112" height="9.544"/>
					<g style="opacity:0.2;">
						<rect x="42.947" y="169.675" width="79.112" height="9.544"/>
					</g>
				</g>
			</g>
			<g>
				<path style="fill:#E0E0E0;" d="M51.906,174.517c0,1.326-1.075,2.402-2.402,2.402s-2.402-1.075-2.402-2.402
					c0-1.327,1.075-2.402,2.402-2.402S51.906,173.19,51.906,174.517z"/>
				<path style="fill:#F0F0F0;" d="M61.714,174.517c0,1.326-1.075,2.402-2.402,2.402c-1.327,0-2.402-1.075-2.402-2.402
					c0-1.327,1.075-2.402,2.402-2.402C60.639,172.115,61.714,173.19,61.714,174.517z"/>
				<path style="fill:#FAFAFA;" d="M71.523,174.517c0,1.326-1.075,2.402-2.402,2.402s-2.402-1.075-2.402-2.402
					c0-1.327,1.075-2.402,2.402-2.402S71.523,173.19,71.523,174.517z"/>
			</g>
		</g>
		
			<text transform="matrix(1 0 0 1 56.2413 206.3731)" style="fill:#FAFAFA; font-family:'CourierPrimeCode-Regular'; font-size:29.175px;">CSS</text>
	</g>
</g>
<g id="Desk">
	<line style="fill:none;stroke:#263238;stroke-miterlimit:10;" x1="28.834" y1="407.202" x2="471.166" y2="407.202"/>
</g>
<g id="Character">
	<g>
		<g>
			<g>
				<path style="fill:#FFFFFF;" d="M197.805,267.721c-1.995-3.216-3.325-9.419-2.66-15.405c0.665-5.985,0.886-15.074-6.651-15.517
					c-7.536-0.443-10.086,14.741-10.529,17.956c-0.443,3.214-13.854,5.209-24.606,1.862c-10.751-3.348-30.812-7.182-39.65-4.965
					c-8.837,2.217-5.558,9.93-5.558,9.93l0.017,0.008c-6.096,4.288,0.598,9.717,0.598,9.717c-6.207,5.616,0.69,11.547,5.074,12.128
					l0,0c-0.12,0.558-0.163,1.139-0.049,1.763c1.182,6.502,28.079,4.138,43.449,10.936c15.369,6.798,26.01,35.468,26.01,35.468
					l32.07-38.498C215.318,293.105,199.8,270.937,197.805,267.721z"/>
				<g>
					<path style="fill:none;stroke:#263238;stroke-miterlimit:10;" d="M145.711,268.351c0,0-30.739-2.66-36.946,2.956
						c-6.207,5.616,0.69,11.547,5.074,12.128"/>
					<path style="fill:none;stroke:#263238;stroke-miterlimit:10;" d="M145.711,261.553c0,0-23.202-6.207-34.729-1.478
						c-10.696,4.388-2.217,11.232-2.217,11.232"/>
					<path style="fill:none;stroke:#263238;stroke-miterlimit:10;" d="M108.15,261.582c0,0-3.279-7.714,5.558-9.93
						c8.838-2.217,28.899,1.617,39.65,4.965c10.751,3.348,24.163,1.353,24.606-1.862c0.443-3.214,2.993-18.399,10.529-17.956
						c7.537,0.443,7.316,9.532,6.65,15.517c-0.665,5.985,0.665,12.189,2.66,15.405c1.995,3.216,17.513,25.383,17.513,25.383
						l-32.069,38.498c0,0-10.64-28.67-26.01-35.468c-15.37-6.798-42.266-4.434-43.449-10.936c-1.182-6.502,10.64-9.458,28.67-7.389"
						/>
				</g>
			</g>
			<g>
				<path style="fill:#D880A6;" d="M170.518,318.023l48.327-27.857c0,0,41.866,75.62,95.857,95.112l-64.31,24.278l-51.609-3.313
					C198.782,406.243,178.259,362.953,170.518,318.023z"/>
				<g style="opacity:0.3;">
					<path style="fill:#FFFFFF;" d="M170.518,318.023l48.327-27.857c0,0,41.866,75.62,95.857,95.112l-64.31,24.278l-51.609-3.313
						C198.782,406.243,178.259,362.953,170.518,318.023z"/>
				</g>
			</g>
			<g>
				<path style="fill:#FAFAFA;" d="M314.242,385.104c-0.334-0.123-0.667-0.251-1-0.378v1.103l1-0.378V385.104z"/>
				<path style="fill:#FAFAFA;" d="M293.272,377.892v15.476l1-0.378v-15.098h4.665c-0.575-0.329-1.15-0.66-1.721-1h-2.944v-1.814
					c-0.334-0.212-0.668-0.424-1-0.638v2.452h-18.97v-17.004c-0.335-0.297-0.668-0.595-1-0.894v17.898h-18.971v-19.898h16.778
					c-0.359-0.332-0.716-0.666-1.071-1h-15.707v-16.31c-0.334-0.38-0.67-0.76-1-1.14v17.45h-18.969v-19.898h16.868
					c-0.283-0.334-0.564-0.667-0.844-1h-16.024v-19.897h0.632c-0.558-0.783-1.1-1.551-1.632-2.31v1.31h-18.97v-19.898h6.862
					c-0.214-0.357-0.41-0.686-0.596-1h-6.266v-0.567l-2.718,1.567h1.718v19.898h-18.97v-9.954l-1,0.576v9.378h-16.268l-1.735,1
					h18.003v19.897h-18.97v-19.34l-1,0.576v16.231c0.324,1.412,0.658,2.818,1,4.216v-0.684h18.97v19.898h-13.661
					c0.102,0.334,0.205,0.668,0.307,1h13.354v19.898h-6.638c0.123,0.335,0.245,0.669,0.367,1h6.272v16.064
					c0.346,0.836,0.679,1.634,1,2.395v-18.459h18.97v19.897h-18.361c0.146,0.342,0.289,0.677,0.428,1h17.933v8.392l1,0.064v-8.456
					h18.97v9.674l1,0.064v-9.738h18.969v9.657l1-0.378v-9.279h18.971v2.117l1-0.378v-1.74h4.609l2.649-1h-7.258v-19.897H293.272z
					 M213.392,376.892h-18.97v-19.898h18.97V376.892z M213.392,355.993h-18.97v-19.898h18.97V355.993z M213.392,335.095h-18.97
					v-19.897h18.97V335.095z M233.362,397.789h-18.97v-19.897h18.97V397.789z M233.362,376.892h-18.97v-19.898h18.97V376.892z
					 M233.362,355.993h-18.97v-19.898h18.97V355.993z M233.362,335.095h-18.97v-19.897h18.97V335.095z M253.332,397.789h-18.969
					v-19.897h18.969V397.789z M253.332,376.892h-18.969v-19.898h18.969V376.892z M273.302,397.789h-18.971v-19.897h18.971V397.789z"
					/>
			</g>
			<g>
				<path style="fill:none;stroke:#263238;stroke-miterlimit:10;" d="M170.518,318.023l48.327-27.857
					c0,0,41.866,75.62,95.857,95.112l-64.31,24.278l-51.609-3.313C198.782,406.243,178.259,362.953,170.518,318.023z"/>
			</g>
			<line style="fill:none;stroke:#263238;stroke-miterlimit:10;" x1="174.785" y1="337.399" x2="229.802" y2="308.369"/>
			<path style="fill:#263238;" d="M220.783,303.881c0,2.275-1.844,4.118-4.118,4.118c-2.274,0-4.118-1.844-4.118-4.118
				c0-2.274,1.844-4.118,4.118-4.118C218.939,299.763,220.783,301.607,220.783,303.881z"/>
		</g>
		<g>
			<g>
				<g>
					<path style="fill:#D880A6;" d="M375.014,334.416c0,0,12.891,33.998-34.419,46.031c-47.31,12.033-103.003,9.933-103.003,9.933
						s-5.659,0.078-5.32-14.752c0.339-14.83-0.332-44.123,18.721-76.492c19.053-32.368,30.904-44.21,40.563-47.902
						c3.361-1.285,26.682-3.229,39.567,4.231C355.274,269.448,373.92,302.261,375.014,334.416z"/>
					<g style="opacity:0.3;">
						<path style="fill:#FFFFFF;" d="M375.014,334.416c0,0,12.891,33.998-34.419,46.031c-47.31,12.033-103.003,9.933-103.003,9.933
							s-5.659,0.078-5.32-14.752c0.339-14.83-0.332-44.123,18.721-76.492c19.053-32.368,30.904-44.21,40.563-47.902
							c3.361-1.285,26.682-3.229,39.567,4.231C355.274,269.448,373.92,302.261,375.014,334.416z"/>
					</g>
				</g>
				<path style="fill:#FAFAFA;" d="M360.237,353.027h15.279c0.091-0.335,0.177-0.669,0.256-1h-15.534v-19.898h14.661
					c-0.02-0.333-0.037-0.667-0.06-1h-14.601V311.23h11.06c-0.095-0.333-0.186-0.668-0.284-1h-10.777v-19.897h2.672
					c-0.177-0.336-0.36-0.667-0.541-1h-2.131v-3.762c-0.327-0.547-0.665-1.084-1-1.623v5.385h-18.97v-19.898h7.979
					c-0.313-0.338-0.63-0.668-0.946-1h-7.033v-6.569c-0.331-0.273-0.665-0.54-1-0.806v7.375h-18.97v-16.886
					c-0.332-0.071-0.666-0.139-1-0.204v17.09h-18.97V250.11c-0.34,0.016-0.674,0.033-1,0.053v18.271h-18.97v-9.759
					c-0.33,0.306-0.663,0.619-1,0.945v8.814h-7.902c-0.263,0.328-0.527,0.66-0.794,1h8.695v19.898h-18.971v-5.403
					c-0.332,0.509-0.663,1.013-1,1.536v3.867h-2.45c-0.209,0.334-0.415,0.661-0.626,1h3.076v19.897H245.15
					c-0.156,0.333-0.319,0.668-0.471,1h14.709v19.898h-18.969v-9.41c-0.348,0.976-0.682,1.946-1,2.909v6.501h-1.966
					c-0.092,0.336-0.175,0.666-0.263,1h2.229v19.898h-5.939c-0.038,0.334-0.076,0.669-0.111,1h6.05v19.897h-7.093
					c-0.006,0.34-0.012,0.672-0.018,1h7.111v16.508c0.298,0.007,0.634,0.014,1,0.021v-16.529h18.969v16.447
					c0.329-0.008,0.665-0.017,1-0.027v-16.42h18.971v15.539c0.332-0.022,0.666-0.045,1-0.068v-15.472h18.97v13.771
					c0.333-0.037,0.666-0.074,1-0.113v-13.658h18.97v10.979c0.333-0.057,0.667-0.112,1-0.169v-10.809h18.97v6.854
					c0.333-0.083,0.667-0.165,1-0.249v-6.605h17.456c0.875-0.483,1.715-0.977,2.514-1.48V353.027z M259.387,372.924h-18.969v-19.897
					h18.969V372.924z M259.387,352.027h-18.969v-19.898h18.969V352.027z M279.358,372.924h-18.971v-19.897h18.971V372.924z
					 M279.358,352.027h-18.971v-19.898h18.971V352.027z M279.358,331.128h-18.971V311.23h18.971V331.128z M279.358,310.23h-18.971
					v-19.897h18.971V310.23z M299.328,372.924h-18.97v-19.897h18.97V372.924z M299.328,352.027h-18.97v-19.898h18.97V352.027z
					 M299.328,331.128h-18.97V311.23h18.97V331.128z M299.328,310.23h-18.97v-19.897h18.97V310.23z M299.328,289.332h-18.97v-19.898
					h18.97V289.332z M319.297,372.924h-18.97v-19.897h18.97V372.924z M319.297,352.027h-18.97v-19.898h18.97V352.027z
					 M319.297,331.128h-18.97V311.23h18.97V331.128z M319.297,310.23h-18.97v-19.897h18.97V310.23z M319.297,289.332h-18.97v-19.898
					h18.97V289.332z M339.267,372.924h-18.97v-19.897h18.97V372.924z M339.267,352.027h-18.97v-19.898h18.97V352.027z
					 M339.267,331.128h-18.97V311.23h18.97V331.128z M339.267,310.23h-18.97v-19.897h18.97V310.23z M339.267,289.332h-18.97v-19.898
					h18.97V289.332z M359.237,372.924h-18.97v-19.897h18.97V372.924z M359.237,352.027h-18.97v-19.898h18.97V352.027z
					 M359.237,331.128h-18.97V311.23h18.97V331.128z M359.237,310.23h-18.97v-19.897h18.97V310.23z"/>
				<path style="fill:none;stroke:#263238;stroke-miterlimit:10;" d="M288.09,251.234c0,0-65.085,55.195-54.693,136.87"/>
			</g>
			<g>
				<path style="fill:#FFFFFF;" d="M332.826,369.831l3.711,51.747l-61.63-6.157c0,0-5.955-1.839-10.641,2.753
					c-4.686,4.592-4.6,7.062-4.969,8.632c-0.369,1.57-1.748,7.415-4.479,10.484c-2.731,3.069-5.005,2.957-6.966,0.962
					c-1.962-1.994-1.962-1.994-1.962-1.994s-0.772-0.399-1.822,0.629c-1.049,1.028-3.76,2.231-5.252,0.18
					c-1.493-2.05-1.552-1.813-1.552-1.813s-0.469-0.868-1.321-0.027c-0.851,0.841-4.59,2.276-6.526-0.034
					c-1.936-2.31-2.709-3.854-2.709-3.854s-0.571-0.194-1.727,0.26c-1.156,0.454-5.907,1.597-8.514-4.025
					c-2.606-5.622-1.032-14.147,0-19.74c1.032-5.593,5.816-17.721,10.157-22.625c4.341-4.904,12.545-10.583,21.122-12.006
					c8.577-1.423,32.446-2.383,42.515-2.626S332.826,369.831,332.826,369.831z"/>
				<path style="fill:none;stroke:#263238;stroke-miterlimit:10;" d="M254.827,400.202c0,0-9.036,15.933-10.674,24.686
					c-1.639,8.752,3.307,15.025,6.165,14.835c2.859-0.19,6.896-3.137,8.67-11.632c1.774-8.495,7.539-12.844,11.766-12.932
					c4.227-0.088,68.975,6.756,68.975,6.756"/>
				<path style="fill:none;stroke:#263238;stroke-miterlimit:10;" d="M243.528,398.096c0,0-7.45,17.071-8.175,26
					c-0.724,8.928,3.347,13.853,5.305,14.137c1.958,0.284,4.891-2.575,4.891-2.575"/>
				<path style="fill:none;stroke:#263238;stroke-miterlimit:10;" d="M233.637,391.797c0,0-8.121,16.109-8.642,25.424
					c-0.521,9.314,1.308,15.912,4.872,18.31c3.563,2.398,7.133-1.125,7.133-1.125"/>
				<path style="fill:none;stroke:#263238;stroke-miterlimit:10;" d="M334.494,369.817c0,0-61.555,0.469-81.484,2.578
					c-19.929,2.108-28.484,13.022-33.002,24.111c-4.518,11.09-6.033,25.686-3.392,30.714c4.532,8.627,9.682,3.451,9.682,3.451"/>
			</g>
			<g>
				<g>
					<g>
						<path style="fill:#D880A6;" d="M339.359,299.763c0,0,34.633,30.418,29.795,50.098c-4.837,19.681-83.904,17.78-83.904,17.78
							v55.961c0,0,34.682-0.778,64.404,3.144c34.761,4.587,89.484-8.316,95.007-49.496c5.523-41.18-28.245-115.73-119.642-128.054
							L339.359,299.763z"/>
						<g style="opacity:0.3;">
							<path style="fill:#FFFFFF;" d="M339.359,299.763c0,0,34.633,30.418,29.795,50.098c-4.837,19.681-83.904,17.78-83.904,17.78
								v55.961c0,0,34.682-0.778,64.404,3.144c34.761,4.587,89.484-8.316,95.007-49.496c5.523-41.18-28.245-115.73-119.642-128.054
								L339.359,299.763z"/>
						</g>
					</g>
					<path style="fill:#FAFAFA;" d="M440.117,372.924v-19.897h3.721c-0.059-0.332-0.121-0.666-0.184-1h-3.538v-13.721
						c-0.318-0.969-0.652-1.941-1-2.915v16.636h-18.97v-19.898h17.752c-0.13-0.333-0.265-0.667-0.399-1h-17.352V311.23h7.145
						c-0.211-0.334-0.423-0.667-0.637-1h-6.508v-9.165c-0.332-0.426-0.661-0.853-1-1.277v10.441h-18.971v-19.897h10.621
						c-0.326-0.335-0.656-0.668-0.986-1h-9.635v-8.76c-0.332-0.273-0.664-0.545-1-0.816v9.576h-18.97v-19.898h4.197
						c-0.555-0.335-1.108-0.671-1.671-1h-2.526v-1.442c-0.33-0.184-0.667-0.362-1-0.544v1.986h-18.97v-10.601
						c-0.33-0.122-0.668-0.236-1-0.356v10.958h-18.97v-16.49c-0.332-0.075-0.666-0.148-1-0.221v16.711h-8.793l0.284,1h8.51v19.898
						h-2.866l0.284,1h2.583v9.107l0.092,0.323c0,0,0.327,0.288,0.908,0.82v-10.25h18.97v19.897h-9.355
						c0.301,0.328,0.604,0.66,0.91,1h8.445v10.348c0.337,0.464,0.671,0.931,1,1.401v-11.75h18.97v19.898h-13.949
						c0.175,0.333,0.345,0.667,0.512,1h13.437v19.898h-10.94c-0.194,0.34-0.411,0.674-0.653,1h11.593v19.897h-18.97v-14.411
						c-0.327,0.156-0.659,0.31-1,0.461v13.95h-18.97v-8.753c-0.332,0.057-0.666,0.113-1,0.168v8.584h-18.97v-6.346
						c-0.334,0.026-0.667,0.053-1,0.078v6.268h-18.97v-5.348c-0.337,0.008-0.671,0.016-1,0.022v5.326H285.25v1h14.078v19.898H285.25
						v1h14.078v19.898H285.25v1h14.078v7.858c0.329,0.004,0.663,0.008,1,0.013v-7.871h18.97v8.446c0.331,0.016,0.666,0.033,1,0.05
						v-8.496h18.97v9.853c0.333,0.032,0.667,0.065,1,0.098v-9.951h18.97v11.819c0.332,0.013,0.665,0.025,1,0.035v-11.854h18.97
						v10.913c0.333-0.042,0.666-0.082,1-0.127v-10.786h18.97v6.663c0.335-0.103,0.667-0.211,1-0.318v-6.345h15.229
						c0.613-0.326,1.219-0.66,1.82-1h-17.049v-19.898h18.971v18.772c0.335-0.203,0.669-0.408,1-0.616v-18.156h18.401
						c0.555-0.927,1.077-1.876,1.569-2.847v-18.052h4.892c0.027-0.332,0.053-0.664,0.075-1H440.117z M359.237,289.332h-18.97
						v-19.898h18.97V289.332z M319.297,414.721h-18.97v-19.898h18.97V414.721z M319.297,393.823h-18.97v-19.898h18.97V393.823z
						 M339.267,414.721h-18.97v-19.898h18.97V414.721z M339.267,393.823h-18.97v-19.898h18.97V393.823z M359.237,414.721h-18.97
						v-19.898h18.97V414.721z M359.237,393.823h-18.97v-19.898h18.97V393.823z M379.207,414.721h-18.97v-19.898h18.97V414.721z
						 M379.207,393.823h-18.97v-19.898h18.97V393.823z M379.207,310.23h-18.97v-19.897h18.97V310.23z M379.207,289.332h-18.97
						v-19.898h18.97V289.332z M399.176,414.721h-18.97v-19.898h18.97V414.721z M399.176,393.823h-18.97v-19.898h18.97V393.823z
						 M399.176,372.924h-18.97v-19.897h18.97V372.924z M399.176,352.027h-18.97v-19.898h18.97V352.027z M399.176,331.128h-18.97
						V311.23h18.97V331.128z M399.176,310.23h-18.97v-19.897h18.97V310.23z M419.147,393.823h-18.971v-19.898h18.971V393.823z
						 M419.147,372.924h-18.971v-19.897h18.971V372.924z M419.147,352.027h-18.971v-19.898h18.971V352.027z M419.147,331.128
						h-18.971V311.23h18.971V331.128z M439.117,393.823h-18.97v-19.898h18.97V393.823z M439.117,372.924h-18.97v-19.897h18.97
						V372.924z"/>
					<path style="fill:none;stroke:#263238;stroke-miterlimit:10;" d="M339.359,299.763c0,0,34.633,30.418,29.795,50.098
						c-4.837,19.681-83.904,17.78-83.904,17.78v55.961c0,0,34.682-0.778,64.404,3.144c34.761,4.587,89.484-8.316,95.007-49.496
						c5.523-41.18-28.245-115.73-119.642-128.054"/>
					<path style="fill:#263238;" d="M299.803,412.986c0,2.271-1.842,4.113-4.113,4.113c-2.272,0-4.113-1.842-4.113-4.113
						c0-2.272,1.841-4.113,4.113-4.113C297.961,408.873,299.803,410.715,299.803,412.986z"/>
					<line style="fill:none;stroke:#263238;stroke-miterlimit:10;" x1="305.445" y1="367.422" x2="305.445" y2="423.594"/>
				</g>
			</g>
			<g>
				<path style="fill:none;stroke:#000000;stroke-width:2;stroke-miterlimit:10;" d="M336.994,203.463
					c0,6.56-5.362,11.879-11.976,11.879s-11.976-5.318-11.976-11.879c0-6.561,5.362-11.879,11.976-11.879
					S336.994,196.902,336.994,203.463z"/>
				<g>
					<path style="fill:#FFFFFF;stroke:#263238;stroke-miterlimit:10;" d="M284.818,166.603h15.043
						c10.001,0,18.183,9.316,18.183,20.703v23.319c0,0.657-0.034,1.305-0.087,1.948c0.162,0.688,0.257,1.401,0.257,2.136v14.195
						v0.791v14.195c0,5.151-4.214,9.365-9.365,9.365h-5.968c-5.151,0-9.365-4.214-9.365-9.365v-12.562h-8.699
						c-10,0-18.183-9.316-18.183-20.703v-23.319C266.635,175.92,274.818,166.603,284.818,166.603z"/>
					<g>
						<path style="fill:#263238;" d="M314.103,203.08l-2.776-18.265c0,0-50.533,6.335-66.915-18.212
							c-16.382-24.547,0.833-34.264,9.163-32.876c8.33,1.388,18.069,13.328,18.069,13.328s-7.753-10.551,0-12.217
							c7.753-1.666,16.318,6.386,20.781,14.715c0,0,33.31-3.106,44.57,17.05c11.26,20.156,2.134,34.455-18.461,55.279l-1.376-11.647
							L314.103,203.08z"/>
					</g>
					<g>
						<g>
							<path style="fill:#D880A6;" d="M309.569,206.667c0,4.77-3.866,8.637-8.636,8.637c-4.77,0-8.636-3.867-8.636-8.637
								c0-4.77,3.866-8.636,8.636-8.636C305.703,198.031,309.569,201.898,309.569,206.667z"/>
							<path style="fill:#D880A6;" d="M268.742,199.761c-0.526,0-1.035,0.068-1.525,0.185v8.957c0,1.338-0.142,2.642,0.13,3.903
								c0.361,0.061,1.017,0.102,1.395,0.102c3.63,0,6.573-2.943,6.573-6.573C275.315,202.704,272.372,199.761,268.742,199.761z"/>
						</g>
						<g>
							<g>
								<path style="fill:#263238;" d="M293.981,194.606c0,1.697-1.375,3.072-3.072,3.072c-1.696,0-3.072-1.375-3.072-3.072
									c0-1.696,1.375-3.072,3.072-3.072C292.606,191.534,293.981,192.909,293.981,194.606z"/>
								<path style="fill:#263238;" d="M273.87,194.156c0,1.448-1.174,2.622-2.622,2.622c-1.448,0-2.622-1.174-2.622-2.622
									c0-1.448,1.174-2.622,2.622-2.622C272.696,191.534,273.87,192.708,273.87,194.156z"/>
							</g>
							<g>
								<path style="fill:#FFFFFF;" d="M276.803,206.724c0,0,1.544,4.498,4.807,4.807c3.263,0.309,5.821-3.308,5.998-6.13
									L276.803,206.724z"/>
								<g>
									<path style="fill:#263238;" d="M276.48,206.813c0.533,1.539,1.494,3.088,2.787,4.09c2.29,1.776,5.207,0.868,6.921-1.245
										c0.981-1.209,1.638-2.698,1.755-4.257c0.012-0.165-0.164-0.356-0.335-0.335c-3.154,0.386-6.308,0.772-9.462,1.159
										c-0.448,0.055-0.896,0.11-1.343,0.165c-0.422,0.052-0.428,0.722,0,0.67c3.154-0.386,6.308-0.772,9.462-1.159
										c0.448-0.055,0.896-0.11,1.343-0.165c-0.112-0.112-0.223-0.223-0.335-0.335c-0.178,2.386-1.894,5.055-4.297,5.686
										c-2.302,0.605-4.086-1.094-5.142-2.946c-0.273-0.48-0.528-0.983-0.709-1.506
										C276.986,206.23,276.338,206.404,276.48,206.813z"/>
								</g>
							</g>
							<g>
								<path style="fill:none;stroke:#4D5A64;stroke-miterlimit:10;" d="M306.459,192.807c0,6.62-4.801,11.986-10.723,11.986
									c-5.922,0-10.723-5.366-10.723-11.986c0-6.619,4.801-11.986,10.723-11.986C301.658,180.822,306.459,186.188,306.459,192.807
									z"/>
								<path style="fill:none;stroke:#4D5A64;stroke-miterlimit:10;" d="M277.84,191.305c0,5.92-3.953,10.719-8.829,10.719
									c-4.876,0-8.829-4.799-8.829-10.719c0-5.92,3.953-10.719,8.829-10.719C273.887,180.586,277.84,185.385,277.84,191.305z"/>
								<polygon style="fill:#D880A6;" points="280.961,191.573 280.961,201.983 275.505,198.658 								"/>
								<path style="fill:none;stroke:#4D5A64;stroke-miterlimit:10;" d="M277.562,194.511c0,0,4.565-1.728,7.697,0.86"/>
							</g>
						</g>
					</g>
					<line style="fill:none;stroke:#4D5A64;stroke-miterlimit:10;" x1="306.445" y1="193.247" x2="320.99" y2="196.288"/>
					<g>
						<path style="fill:#FFFFFF;" d="M336.994,203.463c0,6.56-5.362,11.879-11.976,11.879s-11.976-5.318-11.976-11.879
							c0-6.561,5.362-11.879,11.976-11.879S336.994,196.902,336.994,203.463z"/>
						<g>
							<g>
								<path style="fill:#263238;" d="M318.953,205.032c-0.153-2.4,0.883-5.171,3.219-6.265c1.277-0.598,2.748-0.637,4.126-0.494
									c0.528,0.055,0.524-0.771,0-0.826c-2.367-0.246-4.926,0.202-6.505,2.135c-1.014,1.242-1.5,2.816-1.638,4.396
									c-0.031,0.348-0.051,0.704-0.028,1.054C318.161,205.559,318.987,205.563,318.953,205.032L318.953,205.032z"/>
							</g>
						</g>
					</g>
					<g>
						<g>
							<path style="fill:#D880A6;" d="M328.292,258.298h-43.149c-1.564,0-2.832-1.268-2.832-2.832v-7.403
								c0-1.564,1.268-2.833,2.832-2.833h43.149c1.564,0,2.832,1.268,2.832,2.832v7.403
								C331.125,257.03,329.856,258.298,328.292,258.298z"/>
							<path style="opacity:0.3;fill:#FFFFFF;" d="M328.292,258.298h-43.149c-1.564,0-2.832-1.268-2.832-2.832v-7.403
								c0-1.564,1.268-2.833,2.832-2.833h43.149c1.564,0,2.832,1.268,2.832,2.832v7.403
								C331.125,257.03,329.856,258.298,328.292,258.298z"/>
						</g>
						<path style="fill:#263238;" d="M292.425,251.49c0,1.267-1.027,2.294-2.294,2.294c-1.267,0-2.294-1.027-2.294-2.294
							c0-1.267,1.027-2.294,2.294-2.294C291.398,249.197,292.425,250.224,292.425,251.49z"/>
						<path style="fill:#FAFAFA;" d="M320.297,258.298v-9.762h10.827v-0.473c0-0.181-0.021-0.356-0.053-0.527h-10.774v-2.306h-1
							v2.306h-18.97v-2.306h-1v2.306h-16.964c-0.032,0.171-0.053,0.346-0.053,0.527v0.473h17.017v9.762h1v-9.762h18.97v9.762
							H320.297z"/>
						<path style="fill:none;stroke:#263238;stroke-miterlimit:10;" d="M328.292,258.298h-43.149c-1.564,0-2.832-1.268-2.832-2.832
							v-7.403c0-1.564,1.268-2.833,2.832-2.833h43.149c1.564,0,2.832,1.268,2.832,2.832v7.403
							C331.125,257.03,329.856,258.298,328.292,258.298z"/>
					</g>
				</g>
			</g>
		</g>
	</g>
</g>
<g id="Mug_1_">
	<g>
		<g>
			<path style="fill:#FFFFFF;stroke:#263238;stroke-miterlimit:10;" d="M429.652,392.814c-10.133,0-18.347,8.214-18.347,18.347
				c0,10.133,8.214,18.347,18.347,18.347c10.133,0,18.347-8.215,18.347-18.347C447.999,401.028,439.785,392.814,429.652,392.814z
				 M429.652,422.755c-6.403,0-11.594-5.191-11.594-11.594c0-6.403,5.191-11.594,11.594-11.594c6.403,0,11.594,5.191,11.594,11.594
				C441.246,417.565,436.055,422.755,429.652,422.755z"/>
			<path style="fill:#FFFFFF;stroke:#263238;stroke-miterlimit:10;" d="M424.553,440.607h-38.821c-3.243,0-5.873-2.629-5.873-5.873
				v-46.5c0-3.243,2.629-5.873,5.873-5.873h38.821c3.243,0,5.873,2.629,5.873,5.873v46.5
				C430.425,437.977,427.796,440.607,424.553,440.607z"/>
			<path style="fill:#D880A6;" d="M409.592,428.142h-8.9c-4.443,0-8.045-3.602-8.045-8.045v-0.89c0-4.443,3.602-8.045,8.045-8.045
				h8.9c4.443,0,8.045,3.602,8.045,8.045v0.89C417.637,424.54,414.035,428.142,409.592,428.142z"/>
			<path style="fill:#D880A6;" d="M397.124,432.497h-0.884c-1.375,0-2.49-1.115-2.49-2.49v-5.51c0-1.375,1.115-2.49,2.49-2.49h0.884
				c1.375,0,2.49,1.115,2.49,2.49v5.51C399.615,431.382,398.5,432.497,397.124,432.497z"/>
			<path style="fill:#D880A6;" d="M414.007,432.82h-0.884c-1.375,0-2.49-1.115-2.49-2.49v-5.51c0-1.375,1.115-2.49,2.49-2.49h0.884
				c1.375,0,2.49,1.115,2.49,2.49v5.51C416.498,431.705,415.383,432.82,414.007,432.82z"/>
			<g>
				<path style="fill:#D880A6;" d="M398.598,415.833c-0.805-3.636-1.49-7.342-1.776-11.057c-0.529-6.858,2.871-10.069,10.031-9.07
					c3.776,0.527,5.409-5.253,1.595-5.786c-7.131-0.995-15.624,0.708-17.454,8.842c-1.314,5.841,0.548,12.934,1.818,18.665
					C393.647,421.197,399.433,419.602,398.598,415.833L398.598,415.833z"/>
			</g>
			<path style="fill:#D880A6;" d="M412.483,416.441c0.232-0.291,1.438,0.13,1.792,0.244c2.39,0.775,11.653,2.89,10.995,10.889
				c-0.438,5.327-3.368,7.408-5.921,8.257c-0.925,0.308-1.605-0.839-0.892-1.505c0.904-0.845,1.799-1.908,2.334-3.143
				c1.353-3.122-1.449-5.593-8.968-9.177c-0.512-0.244-0.158-3.655,0.196-4.098L412.483,416.441z"/>
			<path style="fill:#263238;" d="M406.445,391.477c0,0.36-0.292,0.652-0.652,0.652c-0.36,0-0.652-0.292-0.652-0.652
				c0-0.36,0.292-0.652,0.652-0.652C406.154,390.826,406.445,391.117,406.445,391.477z"/>
			<g>
				<g>
					<path style="fill:#263238;" d="M405.721,393.842c0.053,0.205,0.174,0.403,0.299,0.571c0.316,0.422,0.764,0.718,1.258,0.894
						c0.433,0.154,0.893,0.216,1.351,0.227c0.097,0.002,0.096-0.148,0-0.15c-1.042-0.026-2.217-0.386-2.693-1.401
						c-0.027-0.058-0.053-0.118-0.069-0.18C405.842,393.709,405.697,393.749,405.721,393.842L405.721,393.842z"/>
				</g>
			</g>
			<g>
				<path style="fill:#D880A6;" d="M404.013,414.975c0,0.585-0.768,1.059-1.715,1.059s-1.714-0.474-1.714-1.059
					c0-0.585,0.768-1.059,1.714-1.059S404.013,414.39,404.013,414.975z"/>
				<path style="fill:#D880A6;" d="M407.108,416.947c0,0.335-0.44,0.607-0.983,0.607c-0.543,0-0.983-0.272-0.983-0.607
					c0-0.335,0.44-0.607,0.983-0.607C406.668,416.34,407.108,416.612,407.108,416.947z"/>
				<path style="fill:#D880A6;" d="M410.257,413.536c0,0.45-0.851,0.815-1.9,0.815c-1.05,0-1.9-0.365-1.9-0.815
					c0-0.45,0.851-0.814,1.9-0.814C409.406,412.721,410.257,413.086,410.257,413.536z"/>
				<ellipse style="fill:#D880A6;" cx="412.193" cy="415.807" rx="0.888" ry="0.533"/>
				<g style="opacity:0.6;">
					<path style="fill:#FFFFFF;" d="M404.013,414.975c0,0.585-0.768,1.059-1.715,1.059s-1.714-0.474-1.714-1.059
						c0-0.585,0.768-1.059,1.714-1.059S404.013,414.39,404.013,414.975z"/>
					<path style="fill:#FFFFFF;" d="M407.108,416.947c0,0.335-0.44,0.607-0.983,0.607c-0.543,0-0.983-0.272-0.983-0.607
						c0-0.335,0.44-0.607,0.983-0.607C406.668,416.34,407.108,416.612,407.108,416.947z"/>
					<path style="fill:#FFFFFF;" d="M410.257,413.536c0,0.45-0.851,0.815-1.9,0.815c-1.05,0-1.9-0.365-1.9-0.815
						c0-0.45,0.851-0.814,1.9-0.814C409.406,412.721,410.257,413.086,410.257,413.536z"/>
					<ellipse style="fill:#FFFFFF;" cx="412.193" cy="415.807" rx="0.888" ry="0.533"/>
				</g>
			</g>
		</g>
		<g>
			<g>
				<g>
					<path style="fill:#E0E0E0;" d="M425.433,363.77c-0.051,3.753-2.368,7.207-5.94,8.489c-3.594,1.29-7.675,0.165-10.097-2.788
						c-2.382-2.903-2.663-7.122-0.743-10.335c1.907-3.192,5.73-4.951,9.397-4.25C422.323,355.705,425.374,359.446,425.433,363.77
						c0.02,1.447,2.27,1.451,2.25,0c-0.064-4.694-2.94-8.889-7.339-10.566c-4.409-1.68-9.642-0.28-12.622,3.376
						c-2.977,3.652-3.444,8.887-1.011,12.959c2.425,4.059,7.174,6.141,11.803,5.308c5.308-0.955,9.097-5.762,9.17-11.077
						C427.703,362.322,425.453,362.321,425.433,363.77z"/>
				</g>
			</g>
			<g>
				<g>
					<path style="fill:#E0E0E0;" d="M469.612,328.41c-0.071,10.007-6.724,18.91-16.165,22.128
						c-9.531,3.249-20.407,0.479-27.013-7.173c-6.477-7.502-7.345-18.576-2.132-26.998c5.343-8.632,15.962-12.969,25.859-10.974
						C461.135,307.607,469.532,317.1,469.612,328.41c0.01,1.447,2.26,1.451,2.25,0c-0.078-10.932-7.265-20.542-17.499-24.187
						c-10.392-3.702-22.603-0.59-29.731,7.888c-7.018,8.346-7.993,20.508-2.1,29.752c5.902,9.257,17.176,13.804,27.889,11.798
						c12.097-2.266,21.353-12.878,21.441-25.251C471.872,326.961,469.622,326.96,469.612,328.41z"/>
				</g>
			</g>
		</g>
	</g>
</g>
<g id="Device">
	<g>
		<g>
			<g>
				<path style="fill:#263238;" d="M99.148,440.972l105.937,0.194c10.997,0.02,16.683-8.514,12.699-19.061l-27.769-73.526
					c-3.983-10.547-16.128-19.113-27.125-19.133l-105.937-0.193c-10.997-0.02-16.683,8.513-12.699,19.06l27.769,73.526
					C76.006,432.386,88.15,440.952,99.148,440.972z"/>
				<path style="fill:#FFFFFF;" d="M115.138,379.381c1.242,4.669,6.032,8.461,10.699,8.469c4.667,0.009,7.443-3.77,6.201-8.439
					c-1.242-4.669-6.032-8.461-10.699-8.47C116.672,370.934,113.896,374.712,115.138,379.381z"/>
				<path style="fill:#263238;" d="M172.6,441.107l106.729,0.195c1.4,0.003,2.538-1.131,2.54-2.531l0.021-10.774
					c0.003-1.4-1.13-2.538-2.531-2.54l-106.732-0.195c-1.4-0.003-2.537,1.13-2.54,2.531l-0.019,10.775
					C170.067,439.967,171.2,441.104,172.6,441.107z"/>
			</g>
		</g>
	</g>
</g>
</svg>
